<svg width="46" height="45" viewBox="0 0 46 45" fill="none" xmlns="http://www.w3.org/2000/svg">
<path d="M20.1693 0.135605C14.9636 0.818916 10.3666 3.0552 6.71426 6.61668C0.794877 12.4145 -1.40915 20.8005 0.899831 28.6896C4.48924 40.9271 17.7554 47.8637 29.909 43.8673C37.5706 41.3412 43.3011 35.0465 45.0643 27.2609C45.6101 24.7761 45.6101 20.1586 45.0433 17.6739C43.3431 10.0746 37.4657 3.65568 29.93 1.15022C27.0123 0.177017 22.9611 -0.237106 20.1693 0.135605ZM26.7814 1.85423C33.3725 3.09661 39.0819 7.46564 41.9996 13.4498C43.3221 16.2037 43.8258 18.295 43.9308 21.6909C43.9938 23.3681 43.9728 24.9832 43.9098 25.2938L43.7629 25.8529L42.3775 24.5276C40.4673 22.6848 38.4312 20.1586 37.0668 17.943C35.7024 15.7482 35.6814 15.7482 33.7713 17.5289C32.8477 18.4193 32.3229 18.7506 31.9031 18.7506C30.9166 18.7506 29.3213 17.3633 26.4245 13.9881C24.7033 11.9796 23.9686 11.1928 23.192 10.5095L22.6252 10.0332L22.1634 10.9857C21.9115 11.5241 20.799 12.8493 19.7075 13.9467C18.616 15.0442 17.5455 16.2865 17.3356 16.68C16.8528 17.6117 15.2155 19.1026 14.2709 19.496C13.3473 19.8894 12.5707 19.5788 10.6815 18.1087C9.38008 17.0734 9.31711 17.0527 9.04423 17.4461C8.01568 18.8748 2.18026 26.3291 2.01234 26.3705C1.76045 26.474 1.50856 24.3206 1.52955 22.1671C1.63451 13.574 7.09209 5.91267 15.3205 2.84813C16.328 2.47542 17.7974 2.04059 18.574 1.89564C20.4842 1.50222 24.8502 1.50222 26.7814 1.85423ZM23.6538 12.3109C23.7167 12.3316 24.1995 12.9321 24.7453 13.6775C25.7318 15.0234 25.7318 15.0442 25.5009 16.0174C25.396 16.5557 25.312 17.3218 25.333 17.7153C25.417 18.6885 25.1861 19.0198 23.9686 19.7238L22.9401 20.3036L22.3733 22.3742C21.4497 25.7286 20.967 26.7639 19.8754 27.7785C18.9099 28.6896 18.1962 28.9174 17.7974 28.4204C17.6714 28.2962 17.3146 27.6543 16.9787 27.0331C16.6429 26.4119 16.244 25.6872 16.0761 25.4387C15.8032 25.0246 15.8242 24.9211 16.2231 24.362C16.6009 23.8858 16.6219 23.7408 16.391 23.6373C16.2231 23.5752 15.9922 23.161 15.8452 22.7055C15.5513 21.753 15.5094 21.7323 14.8587 22.1878C14.5858 22.3742 14.3339 22.4777 14.2919 22.457C14.103 22.25 16.265 19.3925 18.511 16.8663C19.8964 15.334 21.3658 13.6361 21.8066 13.1392C22.5413 12.2488 22.6882 12.166 23.6538 12.3109ZM36.689 21.8151C37.2557 23.3474 37.6756 24.6312 37.6126 24.6933C37.4447 24.8589 35.5135 23.2024 34.7998 22.3121C33.8762 21.1525 33.4984 20.3036 33.4984 19.3511C33.4984 18.6471 33.6244 18.3779 34.2751 17.736L35.0517 16.9905L35.3456 18.0259C35.5135 18.5849 36.1013 20.3036 36.689 21.8151ZM10.7235 19.2682C11.0383 19.7031 11.5631 20.1172 11.899 20.2414C12.4237 20.4278 12.5077 20.552 12.5077 21.2146C12.5077 22.0636 12.1299 22.7055 11.0803 23.5959C10.7025 23.9479 10.2407 24.4655 10.0728 24.7968C9.88386 25.1281 9.58999 25.3766 9.35909 25.3766C9.12819 25.3766 8.49847 25.77 7.9737 26.2463C7.05011 27.0952 6.98714 27.1159 6.71426 26.7225C6.35742 26.2463 6.35742 26.2463 6.73525 25.1903C6.90318 24.714 6.98714 24.2171 6.92417 24.0721C6.86119 23.9065 7.0711 23.6787 7.40695 23.5337C7.84776 23.3474 7.91073 23.2439 7.67983 23.0989C7.26002 22.8504 7.15506 21.8565 7.55389 21.8565C7.9737 21.8565 8.2046 21.4424 7.88974 21.2353C7.70082 21.1318 7.88974 20.6763 8.51946 19.6203C9.52701 17.9637 9.67395 17.943 10.7235 19.2682ZM34.6949 23.4716C36.8989 25.6458 37.6966 26.7432 36.2272 25.563C35.1777 24.7347 34.359 24.1756 33.8972 24.01C33.7293 23.9479 33.3935 23.5545 33.1626 23.1403C32.9527 22.7262 32.4489 21.9808 32.071 21.4631L31.3574 20.552L32.0501 21.049C32.4279 21.2975 33.6244 22.3949 34.6949 23.4716Z" fill="white"/>
</svg>
